# xmcd
#
# Track frame offsets:
#	182
#	18455
#	38412
#	55855
#	75552
#	92365
#	115412
#	136470
#	153132
#	169587
#
# Disc length: 2506 seconds
#
# Revision: 0
# Processed by: cddbd v1.4PL0 Copyright (c) Steve Scherf et al.
# Submitted via: audiograbber 1.82.00
#
DISCID=6a09c80a
DTITLE=Solomon Burke - Home Land
DYEAR=1900
DGENRE=
TTITLE0=Baby Please Don't Cry
TTITLE1=Try a Little Tenderness
TTITLE2=I Don't Need Nobody
TTITLE3=Make it Up to You
TTITLE4=Stayin' Away
TTITLE5=Home Land
TTITLE6=I'll Be There
TTITLE7=Love Ainn't No Easy Place to Be
TTITLE8=You're Gonna Love Me
TTITLE9=What I've Got to Do
EXTD=
EXTT0=
EXTT1=
EXTT2=
EXTT3=
EXTT4=
EXTT5=
EXTT6=
EXTT7=
EXTT8=
EXTT9=
PLAYORDER=
